<svg xmlns="http://www.w3.org/2000/svg" viewBox="0 0 44 44.5"><g><path fill="rgba(255,255,255,0.8)" class="search_icon_path" d="M43.1 26.2c-1 2.3-2.3 4.3-4 6s-3.7 3-6 4-4.8 1.5-7.3 1.5c-3.9 0-7.5-1.1-10.7-3.3l-9.2 9.2c-.6.7-1.4 1-2.4 1-.9 0-1.7-.4-2.4-1-.7-.7-1-1.5-1-2.4 0-.9.3-1.8 1-2.4l9.2-9.2C8.1 25 7 21.5 7 18.9s.5-5 1.5-7.3 2.3-4.3 4-6c1.7-1.7 3.7-3 6-4S23.3.1 25.8.1s5 .5 7.3 1.5 4.3 2.3 6 4c1.7 1.7 3 3.7 4 6s1.5 4.8 1.5 7.3-.5 5-1.5 7.3zm-8.9-15.8c-2.3-2.3-5.2-3.5-8.5-3.5s-6.1 1.2-8.5 3.5c-2.3 2.3-3.5 5.2-3.5 8.5s1.2 6.1 3.5 8.5c2.3 2.3 5.2 3.5 8.5 3.5s6.1-1.2 8.5-3.5 3.5-5.2 3.5-8.5-1.2-6.2-3.5-8.5z"></path></g></svg>
