<?xml version="1.0" standalone="no"?>
<!DOCTYPE svg PUBLIC "-//W3C//DTD SVG 1.1//EN" "http://www.w3.org/Graphics/SVG/1.1/DTD/svg11.dtd">
<svg xmlns="http://www.w3.org/2000/svg">
<metadata>Generated by Fontastic.me</metadata>
<defs>
<font id="icon" horiz-adv-x="512">
<font-face font-family="icon" units-per-em="512" ascent="480" descent="-32"/>
<missing-glyph horiz-adv-x="512" />

<glyph glyph-name="icon-error" unicode="&#57344;" d="M277 235l0 128-42 0 0-128z m0-86l0 43-42 0 0-43z m-21 320c59 0 109-21 151-63 41-41 62-91 62-150 0-59-21-109-62-151-42-41-92-62-151-62-59 0-109 21-150 62-42 42-63 92-63 151 0 59 21 109 63 150 41 42 91 63 150 63z"/>
<glyph glyph-name="icon-warn" unicode="&#57345;" d="M277 213l0 86-42 0 0-86z m0-85l0 43-42 0 0-43z m-256-64l235 405 235-405z"/>
<glyph glyph-name="icon-cancel" unicode="&#57349;" d="M391 151c24 30 36 65 36 105 0 47-17 87-50 120-34 34-74 51-121 51-40 0-75-12-105-36z m-135-66c40 0 75 12 105 36l-240 240c-24-30-36-65-36-105 0-47 17-87 51-121 33-33 73-50 120-50z m0 384c59 0 109-21 151-63 41-41 62-91 62-150 0-59-21-109-62-151-42-41-92-62-151-62-59 0-109 21-150 62-42 42-63 92-63 151 0 59 21 109 63 150 41 42 91 63 150 63z"/>
<glyph glyph-name="icon-external" unicode="&#57351;" d="M192 405l213 0 0-213-42 0 0 141-248-248-30 30 248 248-141 0z"/>
<glyph glyph-name="icon-email" unicode="&#57352;" d="M427 341l0 43-171-107-171 107 0-43 171-106z m0 86c11 0 21-4 30-13 8-9 12-19 12-30l0-256c0-11-4-21-12-30-9-9-19-13-30-13l-342 0c-11 0-21 4-29 13-9 9-13 19-13 30l0 256c0 11 4 21 13 30 8 9 18 13 29 13z"/>
<glyph glyph-name="icon-phone" unicode="&#57353;" d="M141 282c32-62 79-109 141-141l47 47c7 7 14 8 22 5 24-8 49-12 76-12 6 0 11-2 15-6 4-4 6-9 6-15l0-75c0-6-2-11-6-15-4-4-9-6-15-6-100 0-185 35-256 106-71 71-107 157-107 257 0 6 2 11 6 15 4 4 9 6 15 6l75 0c6 0 11-2 15-6 4-4 6-9 6-15 0-27 4-52 12-76 3-9 1-16-5-22z"/>
<glyph glyph-name="icon-mobile" unicode="&#57354;" d="M363 107l0 298-214 0 0-298z m0 383c11 0 21-4 30-13 8-8 12-18 12-29l0-384c0-11-4-21-12-30-9-9-19-13-30-13l-214 0c-11 0-21 4-29 13-9 9-13 19-13 30l0 384c0 11 4 21 13 30 8 9 18 13 29 13z"/>
<glyph glyph-name="icon-x" unicode="&#57355;" d="M405 375l-119-119 119-119-30-30-119 119-119-119-30 30 119 119-119 119 30 30 119-119 119 119z"/>
<glyph glyph-name="icon-plus" unicode="&#57356;" d="M363 235l0 42-86 0 0 86-42 0 0-86-86 0 0-42 86 0 0-86 42 0 0 86z m42 213c11 0 21-4 30-13 9-9 13-19 13-30l0-298c0-11-4-21-13-30-9-9-19-13-30-13l-298 0c-12 0-22 4-30 13-9 9-13 19-13 30l0 298c0 11 4 21 13 30 8 9 18 13 30 13z"/>
<glyph glyph-name="icon-edit" unicode="&#57357;" d="M442 362l-39-39-80 80 39 39c4 4 9 6 15 6 6 0 11-2 15-6l50-50c4-4 6-9 6-15 0-6-2-11-6-15z m-378-218l236 236 80-80-236-236-80 0z"/>
<glyph glyph-name="icon-down" unicode="&#57358;" d="M158 345l98-98 98 98 30-30-128-128-128 128z"/>
<glyph glyph-name="icon-left" unicode="&#57359;" d="M329 169l-30-30-128 128 128 128 30-30-98-98z"/>
<glyph glyph-name="icon-right" unicode="&#57360;" d="M183 163l98 98-98 98 30 30 128-128-128-128z"/>
<glyph glyph-name="icon-up" unicode="&#57361;" d="M158 183l-30 30 128 128 128-128-30-30-98 98z"/>
<glyph glyph-name="icon-desktop" unicode="&#57362;" d="M448 213l0 214-384 0 0-214z m0 256c11 0 21-4 30-13 9-8 13-18 13-29l0-256c0-11-4-21-13-30-9-9-19-13-30-13l-149 0 42-64 0-21-170 0 0 21 42 64-149 0c-11 0-21 4-30 13-9 9-13 19-13 30l0 256c0 11 4 21 13 29 9 9 19 13 30 13z"/>
<glyph glyph-name="icon-laptop" unicode="&#57365;" d="M427 192l0 213-342 0 0-213z m-128-64l0 21-86 0 0-21z m170 0l43 0 0-43-512 0 0 43 43 0 0 320 426 0z"/>
<glyph glyph-name="icon-rx" unicode="&#57366;" d="M341 213l0 43-64 0 0 64-42 0 0-64-64 0 0-43 64 0 0-64 42 0 0 64z m107 192l0-42-43-128 43-128 0-43-384 0 0 43 43 128-43 128 0 42 271 0 31 86 50-19-24-67z"/>
<glyph glyph-name="icon-camera" unicode="&#57367;" d="M256 149c29 0 55 10 76 31 21 21 31 47 31 76 0 29-10 54-31 75-21 21-47 32-76 32-29 0-54-11-75-32-21-21-32-46-32-75 0-29 11-55 32-76 21-21 46-31 75-31z m-64 320l128 0 39-42 68 0c11 0 21-4 30-13 8-9 12-19 12-30l0-256c0-11-4-21-12-30-9-9-19-13-30-13l-342 0c-11 0-21 4-29 13-9 9-13 19-13 30l0 256c0 11 4 21 13 30 8 9 18 13 29 13l68 0z m-4-213c0 19 7 35 20 48 13 13 29 20 48 20 19 0 35-7 48-20 13-13 20-29 20-48 0-19-7-35-20-48-13-13-29-20-48-20-19 0-35 7-48 20-13 13-20 29-20 48z"/>
<glyph glyph-name="icon-location" unicode="&#57368;" d="M107 85l298 0 0-42-298 0z m106 256c0-11 4-21 13-30 9-8 19-12 30-12 12 0 22 4 31 12 8 9 12 19 12 30 0 11-4 21-13 30-9 9-19 13-30 13-11 0-21-4-30-13-9-9-13-19-13-30z m171 0c0-29-11-63-32-102-21-39-43-70-64-95l-32-37c-9 10-21 24-35 41-15 17-34 47-57 88-24 41-36 76-36 105 0 35 13 65 38 90 25 25 55 38 90 38 35 0 66-13 91-38 25-25 37-55 37-90z"/>
<glyph glyph-name="icon-tri-down" unicode="&#57369;" d="M149 299l214 0-107-107z"/>
<glyph glyph-name="icon-tri-up" unicode="&#57370;" d="M149 213l107 107 107-107z"/>
<glyph glyph-name="icon-building" unicode="&#57371;" d="M384 192l0-43-43 0 0 43z m0 85l0-42-43 0 0 42z m43-170l0 213-171 0 0-43 43 0 0-42-43 0 0-43 43 0 0-43-43 0 0-42z m-214 256l0 42-42 0 0-42z m0-86l0 43-42 0 0-43z m0-85l0 43-42 0 0-43z m0-85l0 42-42 0 0-42z m-85 256l0 42-43 0 0-42z m0-86l0 43-43 0 0-43z m0-85l0 43-43 0 0-43z m0-85l0 42-43 0 0-42z m128 256l213 0 0-299-426 0 0 384 213 0z"/>
<glyph glyph-name="icon-car" unicode="&#57372;" d="M107 299l298 0-32 96-234 0z m266-107c9 0 16 3 23 9 6 6 9 14 9 23 0 9-3 17-9 23-7 6-14 9-23 9-9 0-16-3-22-9-7-6-10-14-10-23 0-9 3-17 10-23 6-6 13-9 22-9z m-234 0c9 0 16 3 23 9 6 6 9 14 9 23 0 9-3 17-9 23-7 6-14 9-23 9-9 0-16-3-22-9-7-6-10-14-10-23 0-9 3-17 10-23 6-6 13-9 22-9z m265 213l44-128 0-170c0-6-2-11-6-16-4-4-9-6-15-6l-22 0c-6 0-11 2-15 6-4 5-6 10-6 16l0 21-256 0 0-21c0-6-2-11-6-16-4-4-9-6-15-6l-22 0c-6 0-11 2-15 6-4 5-6 10-6 16l0 170 44 128c5 15 15 22 31 22l234 0c16 0 26-7 31-22z"/>
<glyph glyph-name="icon-updown" unicode="&#57373;" d="M256 124l68 68 30-30-98-98-98 98 30 30z m0 264l-68-68-30 30 98 98 98-98-30-30z"/>
<glyph glyph-name="icon-check" unicode="&#57374;" d="M192 166l226 227 30-30-256-256-119 119 29 30z"/>
<glyph glyph-name="icon-print" unicode="&#57375;" d="M384 448l0-85-256 0 0 85z m21-192c6 0 11 2 16 6 4 4 6 9 6 15 0 6-2 11-6 15-5 5-10 7-16 7-6 0-11-2-15-7-4-4-6-9-6-15 0-6 2-11 6-15 4-4 9-6 15-6z m-64-149l0 106-170 0 0-106z m64 234c17 0 32-6 45-19 13-13 19-28 19-45l0-128-85 0 0-85-256 0 0 85-85 0 0 128c0 17 6 32 19 45 13 13 28 19 45 19z"/>
<glyph glyph-name="icon-folder" unicode="&#57376;" d="M213 427l43-43 171 0c11 0 21-4 30-13 8-9 12-19 12-30l0-213c0-11-4-21-12-30-9-9-19-13-30-13l-342 0c-11 0-21 4-29 13-9 9-13 19-13 30l0 256c0 11 4 21 13 30 8 9 18 13 29 13z"/>
<glyph glyph-name="icon-top" unicode="&#57379;" d="M85 256l171 171 171-171-31-30-119 119 0-260-42 0 0 260-120-119z"/>
<glyph glyph-name="icon-bottom" unicode="&#57380;" d="M427 256l-171-171-171 171 31 30 119-119 0 260 42 0 0-260 120 119z"/>
<glyph glyph-name="icon-user" unicode="&#57381;" d="M256 102c54 0 97 23 128 69-1 19-16 34-45 47-29 13-57 19-83 19-26 0-54-6-83-19-29-12-44-28-45-47 31-46 74-69 128-69z m0 303c-17 0-32-6-45-19-13-13-19-28-19-45 0-17 6-32 19-45 13-13 28-19 45-19 17 0 32 6 45 19 13 13 19 28 19 45 0 17-6 32-19 45-13 13-28 19-45 19z m0 64c59 0 109-21 151-63 41-41 62-91 62-150 0-59-21-109-62-151-42-41-92-62-151-62-59 0-109 21-150 62-42 42-63 92-63 151 0 59 21 109 63 150 41 42 91 63 150 63z"/>
<glyph glyph-name="icon-download" unicode="&#57382;" d="M107 128l298 0 0-43-298 0z m298 192l-149-149-149 149 85 0 0 128 128 0 0-128z"/>
<glyph glyph-name="icon-message" unicode="&#57383;" d="M384 341l0 43-256 0 0-43z m0-64l0 43-256 0 0-43z m0-64l0 43-256 0 0-43z m43 256c11 0 21-4 30-13 8-8 12-18 12-29l0-384-85 85-299 0c-11 0-21 4-29 13-9 9-13 19-13 30l0 256c0 11 4 21 13 29 8 9 18 13 29 13z"/>
<glyph glyph-name="icon-education" unicode="&#57384;" d="M256 448l235-128 0-171-43 0 0 148-192-105-235 128z m-149-217l149-82 149 82 0-86-149-81-149 81z"/>
<glyph glyph-name="icon-east" unicode="&#57385;" d="M256 427l171-171-171-171-30 30 119 120-260 0 0 42 260 0-119 120z"/>
<glyph glyph-name="icon-west" unicode="&#57386;" d="M427 277l0-42-260 0 119-120-30-30-171 171 171 171 30-30-119-120z"/>
<glyph glyph-name="icon-stop" unicode="&#57387;" d="M491 395l0-310c0-23-8-43-25-60-17-17-38-25-61-25l-155 0c-24 0-44 8-61 25l-168 171c18 17 27 26 28 26 5 4 10 6 17 6 5 0 9-1 13-3l92-52 0 254c0 9 3 16 10 22 6 7 13 10 22 10 9 0 16-3 23-10 6-6 9-13 9-22l0-150 21 0 0 203c0 9 3 17 9 23 6 6 14 9 23 9 9 0 17-3 23-9 6-6 9-14 9-23l0-203 21 0 0 182c0 9 3 16 10 22 6 7 13 10 22 10 9 0 16-3 23-10 6-6 9-13 9-22l0-182 22 0 0 118c0 9 3 16 10 22 6 7 13 10 22 10 9 0 16-3 23-10 6-6 9-13 9-22z"/>
<glyph glyph-name="icon-people" unicode="&#57388;" d="M267 149l0 16c0 15-11 26-33 35-22 9-43 13-63 13-20 0-41-4-63-13-22-9-33-20-33-35l0-16z m-96 198c-13 0-24-5-33-15-10-9-15-20-15-33 0-13 5-24 15-34 9-9 20-14 33-14 13 0 24 5 34 14 9 10 14 21 14 34 0 13-5 24-14 33-10 10-21 15-34 15z m128 58c6 0 11-2 15-6 4-4 6-9 6-15l0-256c0-6-2-11-6-15-4-4-9-6-15-6l-256 0c-6 0-11 2-15 6-5 4-7 9-7 15l0 256c0 6 2 11 7 15 4 4 9 6 15 6z m64-298l0 298 42 0 0-298z m85 298l43 0 0-298-43 0z"/>
<glyph glyph-name="icon-menu" unicode="&#57389;" d="M64 384l384 0 0-43-384 0z m0-149l0 42 384 0 0-42z m0-107l0 43 384 0 0-43z"/>
<glyph glyph-name="icon-help" unicode="&#57390;" d="M321 293c13 13 20 29 20 48 0 23-8 43-25 60-17 17-37 26-60 26-23 0-43-9-60-26-17-17-25-37-25-60l42 0c0 11 4 21 13 30 9 9 19 13 30 13 11 0 21-4 30-13 9-9 13-19 13-30 0-11-4-21-13-30l-26-27c-17-18-25-38-25-60l0-11 42 0c0 23 8 43 25 61z m-44-165l0 43-42 0 0-43z m128 341c11 0 21-4 30-13 9-8 13-18 13-29l0-299c0-11-4-21-13-30-9-9-19-13-30-13l-85 0-64-64-64 64-85 0c-12 0-22 4-30 13-9 9-13 19-13 30l0 299c0 11 4 21 13 29 8 9 18 13 30 13z"/>
<glyph glyph-name="icon-search" unicode="&#57391;" d="M203 213c27 0 49 9 68 28 19 19 28 41 28 68 0 27-9 49-28 68-19 19-41 28-68 28-27 0-49-9-68-28-19-19-28-41-28-68 0-27 9-49 28-68 19-19 41-28 68-28z m128 0l106-106-32-32-106 106 0 17-6 6c-25-22-55-33-90-33-39 0-71 13-98 40-27 27-41 59-41 98 0 39 14 71 41 98 27 27 59 41 98 41 39 0 71-14 98-41 27-27 40-59 40-98 0-35-11-65-33-90l6-6z"/>
</font>
</defs>
</svg>
